<?xml version="1.0" encoding="utf-8"?>
<svg xmlns="http://www.w3.org/2000/svg" xmlns:xlink="http://www.w3.org/1999/xlink" style="margin: auto; background: none; display: block; shape-rendering: auto;" width="243px" height="243px" viewBox="0 0 100 100" preserveAspectRatio="xMidYMid">
<g transform="rotate(0 50 50)">
  <rect x="49" y="28.5" rx="1" ry="2.0300000000000002" width="2" height="7" fill="#070707">
    <animate attributeName="opacity" values="1;0" keyTimes="0;1" dur="1.2195121951219512s" begin="-1.178861788617886s" repeatCount="indefinite"></animate>
  </rect>
</g><g transform="rotate(12 50 50)">
  <rect x="49" y="28.5" rx="1" ry="2.0300000000000002" width="2" height="7" fill="#070707">
    <animate attributeName="opacity" values="1;0" keyTimes="0;1" dur="1.2195121951219512s" begin="-1.1382113821138211s" repeatCount="indefinite"></animate>
  </rect>
</g><g transform="rotate(24 50 50)">
  <rect x="49" y="28.5" rx="1" ry="2.0300000000000002" width="2" height="7" fill="#070707">
    <animate attributeName="opacity" values="1;0" keyTimes="0;1" dur="1.2195121951219512s" begin="-1.097560975609756s" repeatCount="indefinite"></animate>
  </rect>
</g><g transform="rotate(36 50 50)">
  <rect x="49" y="28.5" rx="1" ry="2.0300000000000002" width="2" height="7" fill="#070707">
    <animate attributeName="opacity" values="1;0" keyTimes="0;1" dur="1.2195121951219512s" begin="-1.056910569105691s" repeatCount="indefinite"></animate>
  </rect>
</g><g transform="rotate(48 50 50)">
  <rect x="49" y="28.5" rx="1" ry="2.0300000000000002" width="2" height="7" fill="#070707">
    <animate attributeName="opacity" values="1;0" keyTimes="0;1" dur="1.2195121951219512s" begin="-1.0162601626016259s" repeatCount="indefinite"></animate>
  </rect>
</g><g transform="rotate(60 50 50)">
  <rect x="49" y="28.5" rx="1" ry="2.0300000000000002" width="2" height="7" fill="#070707">
    <animate attributeName="opacity" values="1;0" keyTimes="0;1" dur="1.2195121951219512s" begin="-0.975609756097561s" repeatCount="indefinite"></animate>
  </rect>
</g><g transform="rotate(72 50 50)">
  <rect x="49" y="28.5" rx="1" ry="2.0300000000000002" width="2" height="7" fill="#070707">
    <animate attributeName="opacity" values="1;0" keyTimes="0;1" dur="1.2195121951219512s" begin="-0.9349593495934959s" repeatCount="indefinite"></animate>
  </rect>
</g><g transform="rotate(84 50 50)">
  <rect x="49" y="28.5" rx="1" ry="2.0300000000000002" width="2" height="7" fill="#070707">
    <animate attributeName="opacity" values="1;0" keyTimes="0;1" dur="1.2195121951219512s" begin="-0.8943089430894309s" repeatCount="indefinite"></animate>
  </rect>
</g><g transform="rotate(96 50 50)">
  <rect x="49" y="28.5" rx="1" ry="2.0300000000000002" width="2" height="7" fill="#070707">
    <animate attributeName="opacity" values="1;0" keyTimes="0;1" dur="1.2195121951219512s" begin="-0.8536585365853658s" repeatCount="indefinite"></animate>
  </rect>
</g><g transform="rotate(108 50 50)">
  <rect x="49" y="28.5" rx="1" ry="2.0300000000000002" width="2" height="7" fill="#070707">
    <animate attributeName="opacity" values="1;0" keyTimes="0;1" dur="1.2195121951219512s" begin="-0.8130081300813008s" repeatCount="indefinite"></animate>
  </rect>
</g><g transform="rotate(120 50 50)">
  <rect x="49" y="28.5" rx="1" ry="2.0300000000000002" width="2" height="7" fill="#070707">
    <animate attributeName="opacity" values="1;0" keyTimes="0;1" dur="1.2195121951219512s" begin="-0.7723577235772358s" repeatCount="indefinite"></animate>
  </rect>
</g><g transform="rotate(132 50 50)">
  <rect x="49" y="28.5" rx="1" ry="2.0300000000000002" width="2" height="7" fill="#070707">
    <animate attributeName="opacity" values="1;0" keyTimes="0;1" dur="1.2195121951219512s" begin="-0.7317073170731707s" repeatCount="indefinite"></animate>
  </rect>
</g><g transform="rotate(144 50 50)">
  <rect x="49" y="28.5" rx="1" ry="2.0300000000000002" width="2" height="7" fill="#070707">
    <animate attributeName="opacity" values="1;0" keyTimes="0;1" dur="1.2195121951219512s" begin="-0.6910569105691057s" repeatCount="indefinite"></animate>
  </rect>
</g><g transform="rotate(156 50 50)">
  <rect x="49" y="28.5" rx="1" ry="2.0300000000000002" width="2" height="7" fill="#070707">
    <animate attributeName="opacity" values="1;0" keyTimes="0;1" dur="1.2195121951219512s" begin="-0.6504065040650406s" repeatCount="indefinite"></animate>
  </rect>
</g><g transform="rotate(168 50 50)">
  <rect x="49" y="28.5" rx="1" ry="2.0300000000000002" width="2" height="7" fill="#070707">
    <animate attributeName="opacity" values="1;0" keyTimes="0;1" dur="1.2195121951219512s" begin="-0.6097560975609756s" repeatCount="indefinite"></animate>
  </rect>
</g><g transform="rotate(180 50 50)">
  <rect x="49" y="28.5" rx="1" ry="2.0300000000000002" width="2" height="7" fill="#070707">
    <animate attributeName="opacity" values="1;0" keyTimes="0;1" dur="1.2195121951219512s" begin="-0.5691056910569106s" repeatCount="indefinite"></animate>
  </rect>
</g><g transform="rotate(192 50 50)">
  <rect x="49" y="28.5" rx="1" ry="2.0300000000000002" width="2" height="7" fill="#070707">
    <animate attributeName="opacity" values="1;0" keyTimes="0;1" dur="1.2195121951219512s" begin="-0.5284552845528455s" repeatCount="indefinite"></animate>
  </rect>
</g><g transform="rotate(204 50 50)">
  <rect x="49" y="28.5" rx="1" ry="2.0300000000000002" width="2" height="7" fill="#070707">
    <animate attributeName="opacity" values="1;0" keyTimes="0;1" dur="1.2195121951219512s" begin="-0.4878048780487805s" repeatCount="indefinite"></animate>
  </rect>
</g><g transform="rotate(216 50 50)">
  <rect x="49" y="28.5" rx="1" ry="2.0300000000000002" width="2" height="7" fill="#070707">
    <animate attributeName="opacity" values="1;0" keyTimes="0;1" dur="1.2195121951219512s" begin="-0.44715447154471544s" repeatCount="indefinite"></animate>
  </rect>
</g><g transform="rotate(228 50 50)">
  <rect x="49" y="28.5" rx="1" ry="2.0300000000000002" width="2" height="7" fill="#070707">
    <animate attributeName="opacity" values="1;0" keyTimes="0;1" dur="1.2195121951219512s" begin="-0.4065040650406504s" repeatCount="indefinite"></animate>
  </rect>
</g><g transform="rotate(240 50 50)">
  <rect x="49" y="28.5" rx="1" ry="2.0300000000000002" width="2" height="7" fill="#070707">
    <animate attributeName="opacity" values="1;0" keyTimes="0;1" dur="1.2195121951219512s" begin="-0.36585365853658536s" repeatCount="indefinite"></animate>
  </rect>
</g><g transform="rotate(252 50 50)">
  <rect x="49" y="28.5" rx="1" ry="2.0300000000000002" width="2" height="7" fill="#070707">
    <animate attributeName="opacity" values="1;0" keyTimes="0;1" dur="1.2195121951219512s" begin="-0.3252032520325203s" repeatCount="indefinite"></animate>
  </rect>
</g><g transform="rotate(264 50 50)">
  <rect x="49" y="28.5" rx="1" ry="2.0300000000000002" width="2" height="7" fill="#070707">
    <animate attributeName="opacity" values="1;0" keyTimes="0;1" dur="1.2195121951219512s" begin="-0.2845528455284553s" repeatCount="indefinite"></animate>
  </rect>
</g><g transform="rotate(276 50 50)">
  <rect x="49" y="28.5" rx="1" ry="2.0300000000000002" width="2" height="7" fill="#070707">
    <animate attributeName="opacity" values="1;0" keyTimes="0;1" dur="1.2195121951219512s" begin="-0.24390243902439024s" repeatCount="indefinite"></animate>
  </rect>
</g><g transform="rotate(288 50 50)">
  <rect x="49" y="28.5" rx="1" ry="2.0300000000000002" width="2" height="7" fill="#070707">
    <animate attributeName="opacity" values="1;0" keyTimes="0;1" dur="1.2195121951219512s" begin="-0.2032520325203252s" repeatCount="indefinite"></animate>
  </rect>
</g><g transform="rotate(300 50 50)">
  <rect x="49" y="28.5" rx="1" ry="2.0300000000000002" width="2" height="7" fill="#070707">
    <animate attributeName="opacity" values="1;0" keyTimes="0;1" dur="1.2195121951219512s" begin="-0.16260162601626016s" repeatCount="indefinite"></animate>
  </rect>
</g><g transform="rotate(312 50 50)">
  <rect x="49" y="28.5" rx="1" ry="2.0300000000000002" width="2" height="7" fill="#070707">
    <animate attributeName="opacity" values="1;0" keyTimes="0;1" dur="1.2195121951219512s" begin="-0.12195121951219512s" repeatCount="indefinite"></animate>
  </rect>
</g><g transform="rotate(324 50 50)">
  <rect x="49" y="28.5" rx="1" ry="2.0300000000000002" width="2" height="7" fill="#070707">
    <animate attributeName="opacity" values="1;0" keyTimes="0;1" dur="1.2195121951219512s" begin="-0.08130081300813008s" repeatCount="indefinite"></animate>
  </rect>
</g><g transform="rotate(336 50 50)">
  <rect x="49" y="28.5" rx="1" ry="2.0300000000000002" width="2" height="7" fill="#070707">
    <animate attributeName="opacity" values="1;0" keyTimes="0;1" dur="1.2195121951219512s" begin="-0.04065040650406504s" repeatCount="indefinite"></animate>
  </rect>
</g><g transform="rotate(348 50 50)">
  <rect x="49" y="28.5" rx="1" ry="2.0300000000000002" width="2" height="7" fill="#070707">
    <animate attributeName="opacity" values="1;0" keyTimes="0;1" dur="1.2195121951219512s" begin="0s" repeatCount="indefinite"></animate>
  </rect>
</g>
<!-- [ldio] generated by https://loading.io/ --></svg>